<mxfile host="app.diagrams.net" modified="2022-03-30T15:35:32.735Z" agent="5.0 (Macintosh)" etag="2i09SWU8mxCUPcj0l5Xj" version="17.2.4" type="github">
  <diagram id="rKv57y33yL7DV4RnaXxc" name="Page-1">
    <mxGraphModel dx="946" dy="524" grid="0" gridSize="10" guides="1" tooltips="1" connect="1" arrows="1" fold="1" page="1" pageScale="1" pageWidth="850" pageHeight="1100" math="0" shadow="0">
      <root>
        <mxCell id="0" />
        <mxCell id="1" parent="0" />
        <mxCell id="rQRL7rVQYqgwg08-xG3M-6" value="" style="outlineConnect=0;dashed=0;verticalLabelPosition=bottom;verticalAlign=top;align=center;html=1;shape=mxgraph.aws3.ec2;fillColor=#F58534;gradientColor=none;" vertex="1" parent="1">
          <mxGeometry x="531" y="130" width="76.5" height="93" as="geometry" />
        </mxCell>
        <mxCell id="rQRL7rVQYqgwg08-xG3M-8" value="" style="outlineConnect=0;dashed=0;verticalLabelPosition=bottom;verticalAlign=top;align=center;html=1;shape=mxgraph.aws3.ec2;fillColor=#F58534;gradientColor=none;" vertex="1" parent="1">
          <mxGeometry x="541" y="502" width="76.5" height="93" as="geometry" />
        </mxCell>
        <mxCell id="rQRL7rVQYqgwg08-xG3M-9" value="" style="outlineConnect=0;dashed=0;verticalLabelPosition=bottom;verticalAlign=top;align=center;html=1;shape=mxgraph.aws3.ec2;fillColor=#F58534;gradientColor=none;" vertex="1" parent="1">
          <mxGeometry x="541" y="382" width="76.5" height="93" as="geometry" />
        </mxCell>
        <mxCell id="rQRL7rVQYqgwg08-xG3M-10" value="" style="outlineConnect=0;dashed=0;verticalLabelPosition=bottom;verticalAlign=top;align=center;html=1;shape=mxgraph.aws3.ec2;fillColor=#F58534;gradientColor=none;" vertex="1" parent="1">
          <mxGeometry x="537" y="256" width="76.5" height="93" as="geometry" />
        </mxCell>
        <mxCell id="rQRL7rVQYqgwg08-xG3M-13" value="" style="image;html=1;image=img/lib/clip_art/computers/Server_Rack_Empty_128x128.png" vertex="1" parent="1">
          <mxGeometry x="225" y="139" width="80" height="395" as="geometry" />
        </mxCell>
        <mxCell id="rQRL7rVQYqgwg08-xG3M-16" value="" style="endArrow=none;html=1;rounded=0;exitX=1;exitY=0.5;exitDx=0;exitDy=0;" edge="1" parent="1" source="rQRL7rVQYqgwg08-xG3M-13">
          <mxGeometry width="50" height="50" relative="1" as="geometry">
            <mxPoint x="399" y="401" as="sourcePoint" />
            <mxPoint x="527" y="187" as="targetPoint" />
          </mxGeometry>
        </mxCell>
        <mxCell id="rQRL7rVQYqgwg08-xG3M-17" value="" style="endArrow=none;html=1;rounded=0;exitX=1;exitY=0.5;exitDx=0;exitDy=0;" edge="1" parent="1">
          <mxGeometry width="50" height="50" relative="1" as="geometry">
            <mxPoint x="303" y="340.5" as="sourcePoint" />
            <mxPoint x="531" y="312" as="targetPoint" />
          </mxGeometry>
        </mxCell>
        <mxCell id="rQRL7rVQYqgwg08-xG3M-18" value="" style="endArrow=none;html=1;rounded=0;entryX=0;entryY=0.5;entryDx=0;entryDy=0;entryPerimeter=0;" edge="1" parent="1" target="rQRL7rVQYqgwg08-xG3M-9">
          <mxGeometry width="50" height="50" relative="1" as="geometry">
            <mxPoint x="304" y="345" as="sourcePoint" />
            <mxPoint x="537" y="431" as="targetPoint" />
          </mxGeometry>
        </mxCell>
        <mxCell id="rQRL7rVQYqgwg08-xG3M-19" value="" style="endArrow=none;html=1;rounded=0;entryX=0;entryY=0.5;entryDx=0;entryDy=0;entryPerimeter=0;" edge="1" parent="1" target="rQRL7rVQYqgwg08-xG3M-8">
          <mxGeometry width="50" height="50" relative="1" as="geometry">
            <mxPoint x="303" y="349" as="sourcePoint" />
            <mxPoint x="557" y="217" as="targetPoint" />
          </mxGeometry>
        </mxCell>
        <mxCell id="rQRL7rVQYqgwg08-xG3M-20" value="&lt;b&gt;Physical Server&lt;/b&gt;" style="text;html=1;strokeColor=none;fillColor=none;align=center;verticalAlign=middle;whiteSpace=wrap;rounded=0;" vertex="1" parent="1">
          <mxGeometry x="202.5" y="410" width="125" height="30" as="geometry" />
        </mxCell>
        <mxCell id="rQRL7rVQYqgwg08-xG3M-21" value="VM" style="text;html=1;strokeColor=none;fillColor=none;align=center;verticalAlign=middle;whiteSpace=wrap;rounded=0;" vertex="1" parent="1">
          <mxGeometry x="539.25" y="223" width="60" height="30" as="geometry" />
        </mxCell>
        <mxCell id="rQRL7rVQYqgwg08-xG3M-22" value="VM" style="text;html=1;strokeColor=none;fillColor=none;align=center;verticalAlign=middle;whiteSpace=wrap;rounded=0;" vertex="1" parent="1">
          <mxGeometry x="549.25" y="472" width="60" height="30" as="geometry" />
        </mxCell>
        <mxCell id="rQRL7rVQYqgwg08-xG3M-23" value="VM" style="text;html=1;strokeColor=none;fillColor=none;align=center;verticalAlign=middle;whiteSpace=wrap;rounded=0;" vertex="1" parent="1">
          <mxGeometry x="545.25" y="349" width="60" height="30" as="geometry" />
        </mxCell>
        <mxCell id="rQRL7rVQYqgwg08-xG3M-24" value="VM" style="text;html=1;strokeColor=none;fillColor=none;align=center;verticalAlign=middle;whiteSpace=wrap;rounded=0;" vertex="1" parent="1">
          <mxGeometry x="551.25" y="590" width="60" height="30" as="geometry" />
        </mxCell>
        <mxCell id="rQRL7rVQYqgwg08-xG3M-25" value="V&lt;br&gt;I&lt;br&gt;&lt;div&gt;R&lt;/div&gt;&lt;div&gt;T&lt;br&gt;U&lt;br&gt;A&lt;br&gt;L&lt;br&gt;I&lt;br&gt;Z&lt;br&gt;A&lt;br&gt;T&lt;br&gt;I&lt;br&gt;O&lt;br&gt;N&lt;br&gt;&lt;/div&gt;" style="rounded=1;whiteSpace=wrap;html=1;fillColor=#ffe6cc;strokeColor=#d79b00;" vertex="1" parent="1">
          <mxGeometry x="346" y="148" width="45" height="399" as="geometry" />
        </mxCell>
      </root>
    </mxGraphModel>
  </diagram>
</mxfile>
